<svg version="1.1" id="Layer_1" xmlns:x="ns_extend;" xmlns:i="ns_ai;" xmlns:graph="ns_graphs;" xmlns="http://www.w3.org/2000/svg" xmlns:xlink="http://www.w3.org/1999/xlink" x="0px" y="0px" viewBox="0 0 513.5 100" style="enable-background:new 0 0 513.5 100;" xml:space="preserve">
 <metadata>
  <sfw xmlns="ns_sfw;">
   <slices>
   </slices>
   <sliceSourceBounds bottomLeftOrigin="true" height="100" width="513.5" x="-243" y="-214.3">
   </sliceSourceBounds>
  </sfw>
 </metadata>
 <g>
  <path d="M102,46.8c0-22.4-18.1-40.7-40.5-40.9C42.4-5.7,17.5,0.4,5.9,19.4c-10,16.5-7,37.8,7.2,50.8c8.9,21.3,33.3,31.5,54.7,22.6
		c6.5-2.7,12.3-7,16.7-12.5C95.4,72.7,102,60.2,102,46.8z M69,16c-7-3.2-14.8-4.3-22.5-3.4c4.6-2,9.6-3,14.7-3H62
		C64.6,11.5,66.9,13.6,69,16z M79.9,31.6c11.9,14.7,10.4,36-3.4,49c-9.8,4.5-21,4.5-30.8,0.1c20.1-2.7,35.2-19.8,35.2-40.1
		C80.9,37.5,80.6,34.5,79.9,31.6z M41,78C23.8,67,18.7,44,29.8,26.8c0.6-0.9,1.2-1.8,1.9-2.6c13.6-9.1,31.6-8,43.9,2.8
		C83,46.3,73.3,68,54,75.5C49.8,77.1,45.4,77.9,41,78L41,78z M9.9,54.2c0,3.2,0.4,6.4,1.1,9.5C-1.9,47.5,0.9,23.9,17.1,11
		c11-8.7,26-10.6,38.7-4.8c-8.3,1.1-16.1,4.6-22.3,10.3C19.1,23.5,9.9,38.1,9.9,54.2z M20.4,72.2c-7.1-12.4-6.3-27.8,2.2-39.3
		C16.9,48.7,21.4,66.4,34,77.5C29.2,76.6,24.6,74.8,20.4,72.2L20.4,72.2z M51.8,90.4c-10.7,0-20.8-4.7-27.6-12.9
		c4.5,2,9.4,3.1,14.3,3.4c8.2,5.4,18,7.8,27.7,6.5C61.6,89.4,56.7,90.4,51.8,90.4z M75,19.4c-2.1-3.4-4.7-6.5-7.7-9.2
		c20.2,3.4,33.8,22.6,30.3,42.8c-1,5.6-3.2,10.9-6.5,15.6C97.7,50.4,91.1,30.1,75,19.4z M155.5,21.6c-6.5,0-12.9,2.5-17.7,6.9V7.6
		h-8.9l-0.1,40.7c0,14.8,11.9,26.7,26.7,26.8c14.8,0,26.7-11.9,26.8-26.7C182.2,33.6,170.3,21.6,155.5,21.6L155.5,21.6z M155.5,66.1
		c-9.3-0.1-17-7.3-17.8-16.6c0-1.6,0.1-3.4,0.1-3.4c1.2-9.8,10.1-16.7,19.9-15.5s16.7,10.1,15.5,19.9
		C172.1,59.4,164.5,66.1,155.5,66.1z M303.3,48.2c0.1-14.7-11.8-26.7-26.6-26.8C262,21.4,250,33.3,249.9,48
		c0,8.3,3.8,16.2,10.4,21.2c-0.6,2.1-0.9,4.3-0.9,6.5c0,13.3,10.7,24.2,24,24.2c13.3,0,24.2-10.7,24.2-24c0-6.3-2.4-12.3-6.7-16.8
		C302.5,55.7,303.3,52,303.3,48.2z M258.8,48.2c-0.2-9.9,7.6-18,17.5-18.2s18,7.6,18.2,17.5l0,0v0.7c0,1.9-0.3,3.8-1,5.6
		c-10.2-4.7-22.3-1.7-29.1,7.3C260.8,57.8,258.8,53.1,258.8,48.2z M291.9,57.2c-4.9,8.5-15.7,11.3-24.2,6.4
		c-0.2-0.1-0.3-0.2-0.5-0.3C273,55.8,283.3,53.3,291.9,57.2z M303.9,75.8c0,11.3-9.1,20.4-20.4,20.4c-11.3,0-20.4-9.1-20.4-20.4
		c0,0,0,0,0,0c0-1.5,0.2-2.9,0.5-4.3c4,2.3,8.5,3.5,13.1,3.5c9.1,0,17.6-4.7,22.4-12.4C302.2,66.2,303.9,70.9,303.9,75.8L303.9,75.8
		z M399.1,21.6c-6.5,0-12.8,2.5-17.7,6.9V7.6h-8.9l-0.1,40.7c0,14.7,11.9,26.7,26.7,26.7c14.7,0,26.7-11.9,26.7-26.7
		C425.8,33.6,413.9,21.6,399.1,21.6C399.1,21.6,399.1,21.6,399.1,21.6L399.1,21.6z M399.1,66.1c-9.4,0-17.1-7.3-17.8-16.6l0.1-3.4
		c1.2-9.8,10.1-16.7,19.9-15.5c9.8,1.2,16.7,10.1,15.5,19.9C415.7,59.4,408.1,66.1,399.1,66.1z M489.2,19.3
		c-6.2-0.4-12.3,1.5-17.1,5.5c-13-7-29.2-2.3-36.2,10.7c-7,13-2.3,29.2,10.7,36.2c10.9,5.9,24.4,3.6,32.6-5.6
		c12.5,4.5,26.4-2,30.9-14.5c4.5-12.5-2-26.4-14.5-30.9C493.6,19.9,491.4,19.5,489.2,19.3z M458.3,66.1c-9.8-0.7-17.2-9.3-16.5-19.1
		s9.3-17.2,19.1-16.5l0,0c1.9,0.1,3.8,0.6,5.6,1.4c-1.7,3-2.7,6.4-2.9,9.9c0,0.6-0.1,1.2-0.1,1.7c0,6.9,3,13.5,8.1,18
		C467.9,64.8,463.1,66.4,458.3,66.1L458.3,66.1z M477.3,49.5c-0.2,3.3-1.4,6.4-3.3,9.1c-7.1-6.3-9-16.7-4.4-25.1
		C474.9,37.1,477.8,43.2,477.3,49.5L477.3,49.5z M507.9,44.8c-0.8,11.2-10.6,19.7-21.8,18.9c0,0,0,0,0,0c-1.5-0.1-2.9-0.4-4.3-0.8
		c2.5-3.8,4.1-8.2,4.4-12.8c0.7-9.1-3.4-17.9-10.7-23.2c3.9-2.9,8.7-4.3,13.5-3.9C500.2,23.8,508.7,33.6,507.9,44.8L507.9,44.8z
		 M337.4,21.6c-14.7,0.2-26.5,12.4-26.3,27.1c0.2,14.4,11.9,26,26.3,26.3c6.6,0,12.9-2.5,17.7-6.9V74h8.9l0.1-25.7
		C364.1,33.5,352.1,21.6,337.4,21.6z M355.1,50.4c-1.2,9.8-10.2,16.7-19.9,15.5c-9.8-1.2-16.7-10.2-15.5-19.9
		c1.2-9.8,10.2-16.7,19.9-15.5c8.5,1.1,15,8,15.6,16.5L355.1,50.4z M233.6,49.6c-0.8,9.8-9.4,17.1-19.2,16.3
		c-7.8-0.6-14.3-6.3-16-14c0-0.1-0.3-2.3-0.3-2.3V22.1h-8.9v27.5c0.7,14.7,13.3,26.1,28,25.3c13.6-0.7,24.5-11.5,25.3-25.1V22.1
		h-8.9V49.6z M506.8,15.4c0-0.3,0.2-0.5,0.5-0.6h1.4c1.1,0,1.8,0.5,1.8,1.7c0,0.7-0.6,1.4-1.4,1.4l1.2,1.3c0.1,0.1,0.1,0.2,0.1,0.3
		c0,0.3-0.2,0.6-0.5,0.6c-0.2,0-0.3-0.1-0.4-0.2l-1.7-2v1.6c0,0.3-0.2,0.5-0.5,0.5c0,0,0,0,0,0c-0.3,0-0.5-0.2-0.6-0.5L506.8,15.4z
		 M507.9,17.2h0.7c0.3,0.1,0.7-0.2,0.7-0.5c0,0,0-0.1,0-0.1c0-0.3-0.2-0.6-0.6-0.7c0,0,0,0,0,0h-0.9L507.9,17.2z">
  </path>
  <path d="M503.5,17.5c0,2.8,2.3,5,5,5s5-2.3,5-5s-2.3-5-5-5S503.5,14.7,503.5,17.5z M504.6,17.5c0-2.2,1.8-3.9,3.9-3.9
		c2.2,0,3.9,1.8,3.9,3.9c0,2.2-1.8,3.9-3.9,3.9C506.3,21.4,504.6,19.7,504.6,17.5L504.6,17.5z">
  </path>
 </g>
</svg>