<svg xmlns="http://www.w3.org/2000/svg" width="200" height="200" viewBox="0 0 200 200">
  <g id="Group_932" data-name="Group 932" transform="translate(13134 2327)">
    <rect id="Rectangle_611" data-name="Rectangle 611" width="200" height="200" transform="translate(-13134 -2327)" fill="#041384"/>
    <g id="path-2-link" transform="translate(-13001 -2256.188)">
      <path id="path-2" d="M67.388,26.481c-3.594,2.716-6.768,7.664-7.126,11.441A35.034,35.034,0,0,0,50.11,28.406c.8.029,1.565.044,2.322.044a64.865,64.865,0,0,0,14.956-1.969ZM123.983.188A171.631,171.631,0,0,1,97.324,11.056c-20.2,6.269-32.284,9.989-47.848,10.3q-.334.007-.654.007c-10.551,0-10.487-5.328.2-14.741a345.95,345.95,0,0,1-49,14.966c17.525.5,30.833,4.106,38.827,8.813C50.233,37.1,53,44.13,54.282,48.779H71.2c-1.514-4.92-3.75-15.943,5.864-22.78,6.869-4.879,27.717-10.646,38.886-14.791ZM113.769,57.863a1.652,1.652,0,0,1,1.646,1.671v6.687a1.664,1.664,0,0,1-1.647,1.678h-2.489a1.671,1.671,0,0,1-1.655-1.678V59.534a1.662,1.662,0,0,1,1.655-1.671ZM125.591,67.8a.477.477,0,0,1,.449.43.449.449,0,0,1-.449.434h-.6V67.8Zm.121-.439H124.48v2.885h.511V69.084h.585a.53.53,0,0,1,.429.466c.016.189-.013.682.078.682h.524c-.093-.031-.136-.485-.168-.817a.657.657,0,0,0-.419-.584.741.741,0,0,0,.543-.647.842.842,0,0,0-.851-.827Zm-.213-.714a2.162,2.162,0,1,1-2.136,2.163,2.162,2.162,0,0,1,2.136-2.163Zm0-.241a2.4,2.4,0,1,0,2.376,2.4,2.4,2.4,0,0,0-2.376-2.4ZM46.016,54.527v16.7H49.04a3.3,3.3,0,0,0,3.281-3.34V54.527Zm8.256,0v3.336h8.362l-7.327,8.2a3.287,3.287,0,0,0-.811,2.115v3.049H69.623V67.9h-8.3l7.315-8.2a3.4,3.4,0,0,0,.772-2.17v-3Zm52.38,0a3.345,3.345,0,0,0-3.33,3.344V67.885a3.347,3.347,0,0,0,3.33,3.342H118.43a3.31,3.31,0,0,0,3.285-3.342V57.87a3.308,3.308,0,0,0-3.285-3.344Zm-84.7-5.746a7.559,7.559,0,0,0-5.871,2.8L0,71.229H9.119l12.2-14.893a4.962,4.962,0,0,1,3.823-1.81H28.46l-13.676,16.7h9.128l12.2-14.893a4.953,4.953,0,0,1,3.827-1.81H43.16l-13.621,16.7h9.79a4.144,4.144,0,0,0,4.116-4.183V48.781h-6.7a7.56,7.56,0,0,0-5.871,2.8l-2.409,2.94V48.781Zm49.64,5.746V67.885a3.341,3.341,0,0,0,3.321,3.344H86.241a3.3,3.3,0,0,0,3.278-3.344V57.863H93.2a1.653,1.653,0,0,1,1.653,1.664v11.7h6.3V57.869a3.311,3.311,0,0,0-3.289-3.342H83.215v11.7a1.646,1.646,0,0,1-1.63,1.676H79.563A1.685,1.685,0,0,1,77.9,66.216V54.527Z" transform="translate(-97 -7)" fill="#fff"/>
    </g>
  </g>
</svg>
