<svg class="ml-md-2" data-name="Layer 1" id="Layer_1" viewBox="0 0 114.22 60" xmlns="http://www.w3.org/2000/svg">
<defs>
<style>
            .cls-1 {
                fill: #010101;
            }

        </style>
</defs>
<path class="cls-1" d="M94.55,51c-3.94.69-7.21-4.43-8.26-7.58a28,28,0,0,1-1-11.47,23.92,23.92,0,0,1,7.16-15.17,5.68,5.68,0,0,1,1.55-1,4.7,4.7,0,0,1,3.56-.11c4.21,1.92,7.22,5.74,8.33,11.3,1.64,8.22-1.67,22.34-11.33,24m19.37-24.69a21.72,21.72,0,0,0-9.18-15.7,36.14,36.14,0,0,0,4.86-2.75C113.86,5,110.29-2.23,106,.67a33.06,33.06,0,0,1-7.73,3.86c-1.79.6-4.9,1.31-7.31,1.82a8.3,8.3,0,0,0-7,8.3c-1.64,1.51-3.1,4.07-4.37,7.74-1.5,4.3-1.88,9.24-3.06,13.58A73.76,73.76,0,0,1,73,46.12a21.68,21.68,0,0,1-3.25,5.51A1.17,1.17,0,0,1,69,52h0c-.79,0-1.32-.85-1.16-3.8.07-1,.38-3.6.77-6.49.46-3.91,1.06-7.8,1.63-11.7v0c.46-3.19.89-6.37,1.19-9.56.4-4.36,1.18-11.83-3.35-14.5-4.89-2.9-9.29,1.7-11.65,5.57-3.53,5.79-5.53,12.67-7.63,19.06-.9,2.74-1.79,5.49-2.73,8.22,0-.93,0-1.86,0-2.77.13-5.27.81-10.51,1.16-15.76.21-3.18.69-7.75-1.38-10.48-2.68-3.52-6.59-2.47-9.55,0s-4.9,6.54-6.6,10c-1.11,2.25-2.13,4.56-3.09,6.89A85.75,85.75,0,0,0,25.18,10.8c-.6-3.09-1.81-6.28-4.42-8.21C17.06-.15,11.75.94,8.5,3.84c-10.11,9-9.84,26.77-6.18,38.6,1.46,4.72,8.86,2.7,7.39-2A41.14,41.14,0,0,1,8.35,20.93c.73-4.13,2.3-9.61,6.11-11.95,2-1.22,2.36.34,2.88,2a37.66,37.66,0,0,1,1.25,9.16c.62,12-.44,24.19-1.92,36.08-.54,4.41,6.39,5.05,7.54,1C27.38,46.12,31,34.9,36,24.41a45.21,45.21,0,0,1,3.85-6.93C40,23.6,38.66,30,38.44,36c-.17,4.92-.36,14.3,5.49,16.27,5,1.7,7.47-5.85,8.7-9.12,2.43-6.48,4.29-13.16,6.7-19.65A52.74,52.74,0,0,1,63,15.37a14.56,14.56,0,0,1,.9-1.36v.06a39.62,39.62,0,0,1-.2,6.35c-.4,4.95-1.23,9.87-1.94,14.78-.82,5.64-4.2,17.85,1,22.39,7.72,6.73,14.37-2.09,17.31-8.77L80.64,50c3.11,5.55,8.26,9.47,15.56,8.9,6.53-.5,11.87-6.77,14.54-12.2a36.27,36.27,0,0,0,3.18-20.4"></path>
</svg>