<svg width="100%" height="100%" viewBox="0 0 227 21" version="1.1" xmlns="http://www.w3.org/2000/svg" xmlns:xlink="http://www.w3.org/1999/xlink" xml:space="preserve" xmlns:serif="http://www.serif.com/" style="fill-rule:evenodd;clip-rule:evenodd;stroke-linejoin:round;stroke-miterlimit:2;"><path id="Path_1" d="M14.697,20.831l0,-13.438l-4.635,9.8l-2.261,0l-4.748,-9.8l0,13.438l-3.052,0l0,-20.1l3.052,0l5.881,12.506l5.765,-12.507l3.052,0l0,20.1l-3.054,0.001Z" style="fill-rule:nonzero;"/><path id="Path_2" d="M29.167,21c-4.1,0 -7.207,-2.794 -7.207,-6.945l0,-13.325l3.052,0l0,13.184c0,2.682 1.64,4.348 4.155,4.348c0.069,0.004 0.139,0.005 0.208,0.005c2.19,0 3.991,-1.801 3.991,-3.991c0,-0.121 -0.005,-0.241 -0.016,-0.362l0,-13.184l3.052,0l0,13.325c0,4.152 -3.137,6.945 -7.235,6.945Z" style="fill-rule:nonzero;"/><path id="Path_3" d="M47.137,21.005c-1.979,0.031 -3.888,-0.743 -5.285,-2.145c-1.979,-1.976 -1.95,-4.207 -1.95,-8.074c0,-3.867 -0.028,-6.1 1.95,-8.075c1.397,-1.402 3.306,-2.176 5.285,-2.145c3.7,0 6.472,2.174 7.179,6.183l-3.108,0c-0.348,-1.983 -2.086,-3.444 -4.1,-3.444c-1.1,0 -2.157,0.437 -2.937,1.214c-0.989,1.073 -1.216,2.23 -1.216,6.268c0,4.038 0.226,5.194 1.216,6.267c0.778,0.798 1.853,1.238 2.967,1.214c2.027,0.042 3.791,-1.44 4.1,-3.444l3.081,0c-0.396,3.607 -3.556,6.327 -7.182,6.181Z" style="fill-rule:nonzero;"/><path id="Path_4" d="M68.903,20.831l0,-8.78l-8.168,0l0,8.78l-3.052,0l0,-20.1l3.052,0l0,8.583l8.168,0l0,-8.583l3.052,0l0,20.1l-3.052,0Z" style="fill-rule:nonzero;"/><path id="Path_5" d="M88.064,20.831l-1.385,-4.037l-7.942,0l-1.384,4.037l-3.25,0l7.376,-20.1l2.459,0l7.377,20.1l-3.251,0Zm-5.285,-15.555l-3.137,8.92l6.189,0l-3.052,-8.92Z" style="fill-rule:nonzero;"/><path id="Path_6" d="M99.963,21.005c-1.979,0.031 -3.888,-0.743 -5.285,-2.145c-1.978,-1.976 -1.95,-4.207 -1.95,-8.074c0,-3.867 -0.029,-6.1 1.95,-8.075c1.397,-1.402 3.306,-2.176 5.285,-2.145c3.7,0 6.472,2.174 7.179,6.183l-3.109,0c-0.348,-1.983 -2.086,-3.444 -4.1,-3.444c-1.1,0 -2.157,0.437 -2.937,1.214c-0.989,1.073 -1.215,2.23 -1.215,6.268c0,4.038 0.226,5.194 1.215,6.267c0.783,0.777 1.843,1.214 2.947,1.214c2.017,0 3.761,-1.459 4.118,-3.444l3.081,0c-0.396,3.606 -3.554,6.325 -7.179,6.181Z" style="fill-rule:nonzero;"/><path id="Path_7" d="M121.724,20.831l0,-8.78l-8.168,0l0,8.78l-3.052,0l0,-20.1l3.052,0l0,8.583l8.168,0l0,-8.583l3.054,0l0,20.1l-3.054,0Z" style="fill-rule:nonzero;"/><path id="Path_8" d="M141.14,18.855c-2.936,2.844 -7.664,2.844 -10.6,0c-1.978,-1.976 -1.949,-4.207 -1.949,-8.074c0,-3.867 -0.029,-6.1 1.949,-8.075c2.936,-2.844 7.664,-2.844 10.6,0c1.979,1.976 1.922,4.207 1.922,8.075c0,3.868 0.056,6.098 -1.922,8.074Zm-2.317,-14.313c-0.794,-0.795 -1.872,-1.242 -2.996,-1.242c-1.124,0 -2.202,0.447 -2.996,1.242c-0.989,1.073 -1.187,2.2 -1.187,6.24c0,4.04 0.2,5.166 1.187,6.238c0.794,0.795 1.872,1.243 2.996,1.243c1.124,0 2.202,-0.448 2.996,-1.243c0.989,-1.073 1.187,-2.2 1.187,-6.238c0,-4.038 -0.198,-5.168 -1.187,-6.24Z" style="fill-rule:nonzero;"/><path id="Path_9" d="M161.574,20.831l0,-13.438l-4.635,9.8l-2.261,0l-4.747,-9.8l0,13.438l-3.054,0l0,-20.1l3.053,0l5.879,12.507l5.764,-12.507l3.052,0l0,20.1l-3.051,0Z" style="fill-rule:nonzero;"/><path id="Path_10" d="M180.708,20.831l-1.385,-4.037l-7.942,0l-1.385,4.037l-3.248,0l7.377,-20.1l2.459,0l7.376,20.1l-3.252,0Zm-5.285,-15.555l-3.137,8.92l6.19,0l-3.053,-8.92Z" style="fill-rule:nonzero;"/><path id="Path_11" d="M186.106,20.831l0,-20.1l3.052,0l0,17.362l9.694,0l0,2.739l-12.746,-0.001Z" style="fill-rule:nonzero;"/><path id="Path_12" d="M213.435,18.855c-2.936,2.844 -7.664,2.844 -10.6,0c-1.978,-1.976 -1.949,-4.207 -1.949,-8.074c0,-3.867 -0.029,-6.1 1.949,-8.075c2.936,-2.844 7.664,-2.844 10.6,0c1.979,1.976 1.922,4.207 1.922,8.075c0,3.868 0.056,6.098 -1.922,8.074Zm-2.318,-14.313c-0.794,-0.795 -1.872,-1.242 -2.995,-1.242c-1.124,0 -2.202,0.447 -2.996,1.242c-0.989,1.073 -1.187,2.2 -1.187,6.24c0,4.04 0.2,5.166 1.187,6.238c0.794,0.795 1.872,1.243 2.996,1.243c1.123,0 2.201,-0.448 2.995,-1.243c0.99,-1.073 1.188,-2.2 1.188,-6.238c0,-4.038 -0.198,-5.168 -1.188,-6.24Z" style="fill-rule:nonzero;"/><path id="Path_13" d="M226.044,7.077l-2.5,-1.554l0.09,2.952l-1.692,0l0.091,-2.952l-2.505,1.554l-0.836,-1.465l2.6,-1.374l-2.6,-1.4l0.836,-1.467l2.498,1.559l-0.091,-2.93l1.691,0l-0.09,2.93l2.5,-1.556l0.836,1.467l-2.594,1.4l2.594,1.374l-0.828,1.462Z" style="fill-rule:nonzero;"/></svg>
